<svg width="48" height="48" viewBox="0 0 48 48" fill="none" xmlns="http://www.w3.org/2000/svg">
<path d="M47.4375 23.775H32.7446C32.5954 23.775 32.4524 23.7157 32.3469 23.6103C32.2414 23.5048 32.1821 23.3617 32.1821 23.2125C32.1821 23.0633 32.2414 22.9203 32.3469 22.8148C32.4524 22.7093 32.5954 22.65 32.7446 22.65H47.4375C47.5867 22.65 47.7298 22.7093 47.8352 22.8148C47.9407 22.9203 48 23.0633 48 23.2125C48 23.3617 47.9407 23.5048 47.8352 23.6103C47.7298 23.7157 47.5867 23.775 47.4375 23.775ZM15.2554 23.775H0.5625C0.413316 23.775 0.270242 23.7157 0.164752 23.6103C0.0592632 23.5048 0 23.3617 0 23.2125C0 23.0633 0.0592632 22.9203 0.164752 22.8148C0.270242 22.7093 0.413316 22.65 0.5625 22.65H15.2554C15.4046 22.65 15.5476 22.7093 15.6531 22.8148C15.7586 22.9203 15.8179 23.0633 15.8179 23.2125C15.8179 23.3617 15.7586 23.5048 15.6531 23.6103C15.5476 23.7157 15.4046 23.775 15.2554 23.775ZM47.4375 29.7741H0.5625C0.413316 29.7741 0.270242 29.7148 0.164752 29.6093C0.0592632 29.5038 0 29.3608 0 29.2116C0 29.0624 0.0592632 28.9193 0.164752 28.8138C0.270242 28.7083 0.413316 28.6491 0.5625 28.6491H47.4375C47.5867 28.6491 47.7298 28.7083 47.8352 28.8138C47.9407 28.9193 48 29.0624 48 29.2116C48 29.3608 47.9407 29.5038 47.8352 29.6093C47.7298 29.7148 47.5867 29.7741 47.4375 29.7741ZM5.991 37.7559C5.54599 37.7559 5.11098 37.624 4.74097 37.3768C4.37096 37.1295 4.08257 36.7781 3.91227 36.367C3.74197 35.9559 3.69742 35.5035 3.78423 35.067C3.87105 34.6305 4.08534 34.2296 4.40001 33.915C4.71468 33.6003 5.11559 33.386 5.55205 33.2992C5.9885 33.2124 6.4409 33.2569 6.85204 33.4272C7.26317 33.5975 7.61457 33.8859 7.86181 34.2559C8.10904 34.6259 8.241 35.0609 8.241 35.5059C8.24045 36.1025 8.00323 36.6745 7.58139 37.0963C7.15955 37.5182 6.58757 37.7554 5.991 37.7559ZM5.991 34.3821C5.7685 34.3821 5.55099 34.4481 5.36598 34.5717C5.18098 34.6953 5.03678 34.871 4.95164 35.0766C4.86649 35.2821 4.84421 35.5083 4.88762 35.7265C4.93102 35.9448 5.03817 36.1452 5.19551 36.3026C5.35284 36.4599 5.55329 36.567 5.77152 36.6105C5.98975 36.6539 6.21595 36.6316 6.42152 36.5464C6.62709 36.4613 6.80279 36.3171 6.9264 36.1321C7.05002 35.9471 7.116 35.7296 7.116 35.5071C7.116 35.2087 6.99747 34.9226 6.7865 34.7116C6.57552 34.5006 6.28937 34.3821 5.991 34.3821ZM12 43.461C11.555 43.461 11.12 43.329 10.75 43.0818C10.38 42.8346 10.0916 42.4832 9.92127 42.072C9.75097 41.6609 9.70642 41.2085 9.79323 40.7721C9.88005 40.3356 10.0943 39.9347 10.409 39.62C10.7237 39.3054 11.1246 39.0911 11.561 39.0042C11.9975 38.9174 12.4499 38.962 12.861 39.1323C13.2722 39.3026 13.6236 39.591 13.8708 39.961C14.118 40.331 14.25 40.766 14.25 41.211C14.2495 41.8076 14.0122 42.3796 13.5904 42.8014C13.1685 43.2232 12.5966 43.4605 12 43.461ZM12 40.086C11.7775 40.086 11.56 40.152 11.375 40.2756C11.19 40.3992 11.0458 40.5749 10.9606 40.7805C10.8755 40.9861 10.8532 41.2123 10.8966 41.4305C10.94 41.6487 11.0472 41.8492 11.2045 42.0065C11.3618 42.1638 11.5623 42.271 11.7805 42.3144C11.9988 42.3578 12.225 42.3355 12.4305 42.2504C12.6361 42.1652 12.8118 42.021 12.9354 41.836C13.059 41.651 13.125 41.4335 13.125 41.211C13.1246 40.9129 13.0059 40.6271 12.795 40.4165C12.584 40.2058 12.2981 40.0875 12 40.0875V40.086ZM24 43.461C23.555 43.461 23.12 43.329 22.75 43.0818C22.38 42.8346 22.0916 42.4832 21.9213 42.072C21.751 41.6609 21.7064 41.2085 21.7932 40.7721C21.88 40.3356 22.0943 39.9347 22.409 39.62C22.7237 39.3054 23.1246 39.0911 23.561 39.0042C23.9975 38.9174 24.4499 38.962 24.861 39.1323C25.2722 39.3026 25.6236 39.591 25.8708 39.961C26.118 40.331 26.25 40.766 26.25 41.211C26.2495 41.8076 26.0122 42.3796 25.5904 42.8014C25.1686 43.2232 24.5966 43.4605 24 43.461ZM24 40.086C23.7775 40.086 23.56 40.152 23.375 40.2756C23.19 40.3992 23.0458 40.5749 22.9606 40.7805C22.8755 40.9861 22.8532 41.2123 22.8966 41.4305C22.94 41.6487 23.0472 41.8492 23.2045 42.0065C23.3618 42.1638 23.5623 42.271 23.7805 42.3144C23.9988 42.3578 24.225 42.3355 24.4305 42.2504C24.6361 42.1652 24.8118 42.021 24.9354 41.836C25.059 41.651 25.125 41.4335 25.125 41.211C25.1246 40.9129 25.0059 40.6271 24.795 40.4165C24.584 40.2058 24.2981 40.0875 24 40.0875V40.086ZM36 43.461C35.555 43.461 35.12 43.329 34.75 43.0818C34.38 42.8346 34.0916 42.4832 33.9213 42.072C33.751 41.6609 33.7064 41.2085 33.7932 40.7721C33.8801 40.3356 34.0943 39.9347 34.409 39.62C34.7237 39.3054 35.1246 39.0911 35.561 39.0042C35.9975 38.9174 36.4499 38.962 36.861 39.1323C37.2722 39.3026 37.6236 39.591 37.8708 39.961C38.118 40.331 38.25 40.766 38.25 41.211C38.2495 41.8076 38.0122 42.3796 37.5904 42.8014C37.1685 43.2232 36.5966 43.4605 36 43.461ZM36 40.086C35.7775 40.086 35.56 40.152 35.375 40.2756C35.19 40.3992 35.0458 40.5749 34.9606 40.7805C34.8755 40.9861 34.8532 41.2123 34.8966 41.4305C34.94 41.6487 35.0472 41.8492 35.2045 42.0065C35.3618 42.1638 35.5623 42.271 35.7805 42.3144C35.9988 42.3578 36.225 42.3355 36.4305 42.2504C36.6361 42.1652 36.8118 42.021 36.9354 41.836C37.059 41.651 37.125 41.4335 37.125 41.211C37.1246 40.9129 37.0059 40.6271 36.795 40.4165C36.584 40.2058 36.2981 40.0875 36 40.0875V40.086ZM18 37.7559C17.555 37.7559 17.12 37.624 16.75 37.3768C16.38 37.1295 16.0916 36.7781 15.9213 36.367C15.751 35.9559 15.7064 35.5035 15.7932 35.067C15.88 34.6305 16.0943 34.2296 16.409 33.915C16.7237 33.6003 17.1246 33.386 17.561 33.2992C17.9975 33.2124 18.4499 33.2569 18.861 33.4272C19.2722 33.5975 19.6236 33.8859 19.8708 34.2559C20.118 34.6259 20.25 35.0609 20.25 35.5059C20.2495 36.1025 20.0122 36.6745 19.5904 37.0963C19.1685 37.5182 18.5966 37.7554 18 37.7559ZM18 34.3821C17.7775 34.3821 17.56 34.4481 17.375 34.5717C17.19 34.6953 17.0458 34.871 16.9606 35.0766C16.8755 35.2821 16.8532 35.5083 16.8966 35.7265C16.94 35.9448 17.0472 36.1452 17.2045 36.3026C17.3618 36.4599 17.5623 36.567 17.7805 36.6105C17.9988 36.6539 18.225 36.6316 18.4305 36.5464C18.6361 36.4613 18.8118 36.3171 18.9354 36.1321C19.059 35.9471 19.125 35.7296 19.125 35.5071C19.125 35.2087 19.0065 34.9226 18.7955 34.7116C18.5845 34.5006 18.2984 34.3821 18 34.3821ZM30.009 37.7559C29.564 37.7559 29.129 37.624 28.759 37.3768C28.389 37.1295 28.1006 36.7781 27.9303 36.367C27.76 35.9559 27.7154 35.5035 27.8022 35.067C27.889 34.6305 28.1033 34.2296 28.418 33.915C28.7327 33.6003 29.1336 33.386 29.57 33.2992C30.0065 33.2124 30.4589 33.2569 30.87 33.4272C31.2812 33.5975 31.6326 33.8859 31.8798 34.2559C32.127 34.6259 32.259 35.0609 32.259 35.5059C32.2585 36.1025 32.0212 36.6745 31.5994 37.0963C31.1775 37.5182 30.6056 37.7554 30.009 37.7559ZM30.009 34.3821C29.7865 34.3821 29.569 34.4481 29.384 34.5717C29.199 34.6953 29.0548 34.871 28.9696 35.0766C28.8845 35.2821 28.8622 35.5083 28.9056 35.7265C28.949 35.9448 29.0562 36.1452 29.2135 36.3026C29.3708 36.4599 29.5713 36.567 29.7895 36.6105C30.0078 36.6539 30.234 36.6316 30.4395 36.5464C30.6451 36.4613 30.8208 36.3171 30.9444 36.1321C31.068 35.9471 31.134 35.7296 31.134 35.5071C31.134 35.2087 31.0155 34.9226 30.8045 34.7116C30.5935 34.5006 30.3074 34.3821 30.009 34.3821ZM42.0188 37.7559C41.5737 37.7559 41.1387 37.624 40.7687 37.3768C40.3987 37.1295 40.1103 36.7781 39.94 36.367C39.7697 35.9559 39.7252 35.5035 39.812 35.067C39.8988 34.6305 40.1131 34.2296 40.4278 33.915C40.7424 33.6003 41.1433 33.386 41.5798 33.2992C42.0163 33.2124 42.4687 33.2569 42.8798 33.4272C43.2909 33.5975 43.6423 33.8859 43.8896 34.2559C44.1368 34.6259 44.2688 35.0609 44.2688 35.5059C44.2682 36.1025 44.031 36.6745 43.6091 37.0963C43.1873 37.5182 42.6153 37.7554 42.0188 37.7559ZM42.0188 34.3821C41.7962 34.3821 41.5787 34.4481 41.3937 34.5717C41.2087 34.6953 41.0645 34.871 40.9794 35.0766C40.8942 35.2821 40.872 35.5083 40.9154 35.7265C40.9588 35.9448 41.0659 36.1452 41.2233 36.3026C41.3806 36.4599 41.581 36.567 41.7993 36.6105C42.0175 36.6539 42.2437 36.6316 42.4493 36.5464C42.6548 36.4613 42.8305 36.3171 42.9542 36.1321C43.0778 35.9471 43.1438 35.7296 43.1438 35.5071C43.1438 35.2087 43.0252 34.9226 42.8142 34.7116C42.6033 34.5006 42.3171 34.3821 42.0188 34.3821ZM24 26.4818C22.1607 26.4798 20.3972 25.7482 19.0966 24.4476C17.796 23.147 17.0645 21.3836 17.0625 19.5443C17.0625 15.9137 23.25 5.26876 23.5142 4.81876C23.5637 4.73387 23.6347 4.66344 23.7199 4.6145C23.8051 4.56555 23.9017 4.53979 24 4.53979C24.0983 4.53979 24.1949 4.56555 24.2801 4.6145C24.3653 4.66344 24.4363 4.73387 24.4858 4.81876C24.75 5.26876 30.9375 15.9137 30.9375 19.5446C30.9354 21.3839 30.2038 23.1472 28.9032 24.4478C27.6026 25.7483 25.8393 26.4798 24 26.4818ZM24 6.23063C22.0157 9.73126 18.1875 17.0098 18.1875 19.5446C18.1875 21.0862 18.7999 22.5646 19.8899 23.6547C20.98 24.7447 22.4584 25.3571 24 25.3571C25.5416 25.3571 27.02 24.7447 28.1101 23.6547C29.2001 22.5646 29.8125 21.0862 29.8125 19.5446C29.8125 17.0091 25.9843 9.73126 24 6.23063Z" fill="#867070"/>
<path d="M25.4878 23.4891C25.3667 23.4892 25.2488 23.4502 25.1516 23.3779C25.0544 23.3056 24.9832 23.2039 24.9484 23.0879C24.9137 22.9719 24.9173 22.8477 24.9588 22.7339C25.0003 22.6201 25.0774 22.5228 25.1786 22.4563C25.7815 22.0625 26.2764 21.5244 26.6186 20.8909C26.9609 20.2574 27.1395 19.5484 27.1384 18.8284C27.1384 18.6792 27.1977 18.5361 27.3031 18.4306C27.4086 18.3251 27.5517 18.2659 27.7009 18.2659C27.8501 18.2659 27.9932 18.3251 28.0986 18.4306C28.2041 18.5361 28.2634 18.6792 28.2634 18.8284C28.2644 19.7349 28.0393 20.6275 27.6084 21.4251C27.1776 22.2228 26.5547 22.9005 25.7961 23.3968C25.7046 23.457 25.5974 23.4891 25.4878 23.4891Z" fill="#867070"/>
</svg>
