<svg width="49" height="48" viewBox="0 0 49 48" fill="none" xmlns="http://www.w3.org/2000/svg">
<path d="M37.4543 31.4445C36.8303 31.6991 36.314 32.1622 35.9931 32.7548C35.6723 33.3474 35.5669 34.033 35.6949 34.6946C35.8228 35.3563 36.1762 35.9531 36.6949 36.3834C37.2135 36.8137 37.8653 37.0509 38.5392 37.0545C39.2131 37.0581 39.8674 36.828 40.3907 36.4033C40.9139 35.9786 41.2737 35.3856 41.4088 34.7254C41.5438 34.0652 41.4458 33.3785 41.1314 32.7824C40.817 32.1864 40.3056 31.7178 39.6844 31.4565C39.332 31.3071 38.9534 31.2291 38.5706 31.227C38.1878 31.2249 37.8083 31.2989 37.4543 31.4445ZM40.2105 33.4668C40.3671 33.8511 40.3856 34.2777 40.2628 34.674C40.14 35.0703 39.8836 35.4117 39.5372 35.6401C39.1909 35.8685 38.776 35.9697 38.3634 35.9265C37.9507 35.8833 37.5659 35.6983 37.2744 35.403C36.9829 35.1078 36.8028 34.7206 36.7649 34.3074C36.7269 33.8943 36.8334 33.4808 37.0662 33.1374C37.299 32.7939 37.6437 32.5419 38.0415 32.4242C38.4394 32.3065 38.8657 32.3304 39.2479 32.4918C39.4652 32.5824 39.6623 32.7153 39.8278 32.8826C39.9933 33.05 40.1239 33.2486 40.212 33.4668H40.2105ZM7.01929 23.7547C6.88222 23.2409 6.59586 22.7793 6.19642 22.4283C5.79699 22.0773 5.30243 21.8526 4.77529 21.7827C4.24815 21.7128 3.71212 21.8007 3.23498 22.0355C2.75785 22.2702 2.36104 22.6412 2.09476 23.1015C1.82848 23.5618 1.70467 24.0907 1.73901 24.6213C1.77335 25.152 1.96428 25.6605 2.28766 26.0826C2.61104 26.5047 3.05234 26.8215 3.55575 26.9928C4.05916 27.1641 4.60206 27.1822 5.11579 27.045C5.80423 26.8606 6.39136 26.4105 6.74825 25.7936C7.10515 25.1767 7.20263 24.4434 7.01929 23.7547ZM4.82554 25.9582C4.52685 26.0381 4.21119 26.0275 3.91848 25.9279C3.62577 25.8284 3.36918 25.6442 3.18115 25.3988C2.99312 25.1533 2.8821 24.8576 2.86215 24.5491C2.84219 24.2406 2.91419 23.933 3.06904 23.6654C3.22389 23.3978 3.45463 23.1822 3.73207 23.0457C4.00951 22.9092 4.32119 22.8581 4.62768 22.8988C4.93417 22.9395 5.2217 23.0702 5.4539 23.2744C5.68611 23.4785 5.85255 23.747 5.93217 24.0457C5.98661 24.244 6.0011 24.4511 5.97479 24.655C5.94849 24.8589 5.88192 25.0555 5.77895 25.2335C5.67599 25.4114 5.53868 25.5671 5.375 25.6915C5.21133 25.816 5.02456 25.9066 4.82554 25.9582ZM46.587 24.903C46.4111 24.4712 46.0908 24.1138 45.6809 23.8917C45.2709 23.6696 44.7966 23.5965 44.3388 23.6848C43.881 23.7732 43.468 24.0176 43.1702 24.3764C42.8724 24.7351 42.7082 25.186 42.7056 25.6523C42.703 26.1185 42.8622 26.5713 43.1559 26.9333C43.4497 27.2954 43.8599 27.5444 44.3167 27.6379C44.7735 27.7314 45.2486 27.6636 45.661 27.4461C46.0734 27.2285 46.3976 26.8747 46.5784 26.445C46.6817 26.2013 46.7357 25.9395 46.7372 25.6748C46.7387 25.4101 46.6876 25.1478 46.587 24.903ZM45.5412 26.0085C45.4612 26.1981 45.318 26.3541 45.1359 26.4499C44.9538 26.5458 44.7442 26.5755 44.5426 26.5341C44.3411 26.4927 44.1601 26.3827 44.0305 26.2229C43.901 26.063 43.8309 25.8632 43.8321 25.6574C43.8333 25.4517 43.9059 25.2527 44.0374 25.0944C44.1688 24.9361 44.3511 24.8283 44.5532 24.7894C44.7552 24.7504 44.9645 24.7827 45.1454 24.8808C45.3263 24.9788 45.4676 25.1365 45.5453 25.3271C45.5898 25.4353 45.6124 25.5513 45.6117 25.6684C45.611 25.7854 45.587 25.9008 45.5412 26.0085ZM4.94667 18.4016C5.36756 18.4014 5.77784 18.2695 6.11991 18.0243C6.46198 17.7791 6.71867 17.4329 6.85395 17.0343C6.98922 16.6358 6.99629 16.2048 6.87417 15.8021C6.75204 15.3993 6.50684 15.0449 6.173 14.7885C5.83915 14.5322 5.43343 14.3869 5.01277 14.3729C4.59211 14.359 4.17765 14.4771 3.82755 14.7108C3.47746 14.9444 3.20932 15.2818 3.06077 15.6756C2.91222 16.0694 2.89072 16.4998 2.99929 16.9065C3.11405 17.3353 3.3671 17.7142 3.7192 17.9846C4.0713 18.2549 4.50276 18.4015 4.94667 18.4016ZM4.71642 15.525C4.82934 15.4947 4.94713 15.4869 5.06305 15.5022C5.17896 15.5175 5.29072 15.5555 5.39192 15.6141C5.49311 15.6727 5.58176 15.7506 5.65278 15.8435C5.7238 15.9364 5.7758 16.0423 5.80579 16.1553C5.85116 16.3254 5.84508 16.5051 5.78834 16.6717C5.73159 16.8382 5.62672 16.9843 5.48698 17.0913C5.34725 17.1983 5.17892 17.2614 5.0033 17.2727C4.82767 17.2841 4.65263 17.2431 4.5003 17.1549C4.34797 17.0668 4.2252 16.9355 4.14751 16.7775C4.06982 16.6196 4.0407 16.4422 4.06384 16.2677C4.08697 16.0933 4.16131 15.9296 4.27747 15.7974C4.39363 15.6652 4.54638 15.5704 4.71642 15.525ZM9.28955 37.329C9.54825 37.4792 9.84201 37.5585 10.1412 37.5588C10.4028 37.5586 10.6609 37.4984 10.8955 37.3826C11.1301 37.2669 11.3351 37.0989 11.4945 36.8915C11.6539 36.684 11.7636 36.4427 11.815 36.1862C11.8665 35.9297 11.8583 35.6648 11.7912 35.412C11.7187 35.141 11.5806 34.892 11.389 34.6872C11.1974 34.4823 10.9582 34.3278 10.6926 34.2375C10.4271 34.1471 10.1433 34.1237 9.86653 34.1692C9.58973 34.2146 9.32842 34.3277 9.10575 34.4983C8.88307 34.6689 8.70589 34.8917 8.58991 35.1471C8.47393 35.4025 8.42273 35.6826 8.44083 35.9625C8.45893 36.2425 8.54578 36.5136 8.69369 36.7519C8.8416 36.9903 9.046 37.1885 9.28879 37.329H9.28955ZM9.64054 35.5608C9.67874 35.4947 9.72961 35.4368 9.79023 35.3904C9.85084 35.344 9.92002 35.3101 9.9938 35.2905C10.0428 35.2776 10.0932 35.2711 10.1438 35.271C10.2715 35.2714 10.3955 35.3139 10.4967 35.3919C10.5978 35.47 10.6703 35.5792 10.703 35.7027C10.7358 35.8261 10.7269 35.9569 10.6777 36.0748C10.6286 36.1927 10.5419 36.2911 10.4312 36.3548C10.3204 36.4184 10.1918 36.4437 10.0652 36.4269C9.9386 36.41 9.82109 36.3518 9.7309 36.2614C9.64071 36.1709 9.58286 36.0533 9.56632 35.9266C9.54978 35.8 9.57547 35.6714 9.63942 35.5608H9.64054ZM43.5023 15.1976C43.9831 15.3997 44.5246 15.4027 45.0076 15.2058C45.4906 15.0089 45.8757 14.6283 46.0782 14.1476C46.2291 13.789 46.2702 13.3938 46.1965 13.0118C46.1227 12.6299 45.9374 12.2784 45.6639 12.0018C45.3903 11.7252 45.0409 11.5359 44.6598 11.4578C44.2787 11.3798 43.8831 11.4165 43.5228 11.5634C43.1626 11.7102 42.854 11.9606 42.6361 12.2828C42.4181 12.605 42.3006 12.9846 42.2984 13.3736C42.2962 13.7626 42.4094 14.1435 42.6237 14.4682C42.838 14.7929 43.1438 15.0467 43.5023 15.1976ZM43.4892 13.0578C43.5318 12.9558 43.5942 12.8632 43.6728 12.7854C43.7514 12.7076 43.8446 12.6461 43.947 12.6045C44.0482 12.5633 44.1563 12.542 44.2654 12.5418C44.4465 12.5417 44.6228 12.5998 44.7683 12.7077C44.9138 12.8156 45.0206 12.9674 45.0731 13.1407C45.1255 13.3141 45.1207 13.4997 45.0594 13.6701C44.9982 13.8405 44.8836 13.9866 44.7328 14.0869C44.582 14.1871 44.403 14.2361 44.2221 14.2267C44.0413 14.2172 43.8683 14.1498 43.7288 14.0343C43.5892 13.9189 43.4906 13.7616 43.4475 13.5857C43.4043 13.4098 43.4189 13.2247 43.4892 13.0578ZM24.4995 26.4502C25.0216 26.4329 25.5193 26.2257 25.8994 25.8675C25.9571 25.8198 26.0047 25.7611 26.0394 25.6948C26.0741 25.6285 26.0952 25.556 26.1015 25.4814C26.1078 25.4069 26.0992 25.3318 26.0762 25.2606C26.0531 25.1895 26.0161 25.1236 25.9673 25.0669C25.9185 25.0102 25.8589 24.9638 25.7919 24.9304C25.7249 24.8971 25.652 24.8774 25.5773 24.8726C25.5026 24.8678 25.4278 24.8779 25.3571 24.9023C25.2864 24.9268 25.2213 24.9651 25.1655 25.0151C25.0837 25.112 24.9818 25.1899 24.8667 25.2434C24.7517 25.2968 24.6264 25.3245 24.4995 25.3245C24.3727 25.3245 24.2474 25.2968 24.1324 25.2434C24.0173 25.1899 23.9154 25.112 23.8335 25.0151C23.7778 24.9651 23.7127 24.9268 23.642 24.9023C23.5713 24.8779 23.4964 24.8678 23.4218 24.8726C23.3471 24.8774 23.2742 24.8971 23.2072 24.9304C23.1402 24.9638 23.0806 25.0102 23.0318 25.0669C22.983 25.1236 22.946 25.1895 22.9229 25.2606C22.8999 25.3318 22.8912 25.4069 22.8976 25.4814C22.9039 25.556 22.925 25.6285 22.9597 25.6948C22.9944 25.7611 23.042 25.8198 23.0997 25.8675C23.4798 26.2257 23.9775 26.4329 24.4995 26.4502ZM27.2025 28.365H27.1958C26.7789 28.4489 26.3505 28.46 25.9298 28.398C25.8248 28.3826 25.7224 28.3623 25.5998 28.3387C25.4247 28.2981 25.2437 28.2893 25.0654 28.3128C24.8789 28.3456 24.7017 28.4181 24.5457 28.5255C24.5317 28.5337 24.5158 28.5381 24.4995 28.5381C24.4833 28.5381 24.4674 28.5337 24.4534 28.5255C24.2974 28.4181 24.1202 28.3456 23.9337 28.3128C23.7554 28.2893 23.5744 28.2981 23.3993 28.3387C23.277 28.3623 23.1743 28.3826 23.0693 28.398C22.6487 28.46 22.2205 28.4489 21.8037 28.365H21.7965C21.6987 28.3457 21.5973 28.3634 21.5117 28.4145C21.4261 28.4656 21.3625 28.5466 21.3331 28.6419C21.3037 28.7372 21.3106 28.8399 21.3525 28.9304C21.3944 29.0209 21.4683 29.0926 21.5599 29.1318C22.0619 29.35 22.6058 29.4553 23.1529 29.4401C23.2887 29.4363 23.4259 29.4251 23.5425 29.4161C23.652 29.4063 23.6989 29.4243 23.8617 29.52C24.0414 29.6294 24.2471 29.6889 24.4575 29.6925H24.5415C24.752 29.6889 24.9576 29.6294 25.1374 29.52C25.3002 29.4243 25.347 29.4075 25.4565 29.4161C25.5732 29.4251 25.7104 29.4363 25.8462 29.4401C26.3933 29.4553 26.9372 29.35 27.4392 29.1318C27.5308 29.0926 27.6047 29.0209 27.6466 28.9304C27.6885 28.8399 27.6954 28.7372 27.666 28.6419C27.6366 28.5466 27.573 28.4656 27.4874 28.4145C27.4018 28.3634 27.3004 28.3457 27.2025 28.365ZM24.8415 30.3288C24.7362 30.3848 24.6188 30.414 24.4995 30.414C24.3803 30.414 24.2629 30.3848 24.1575 30.3288C24.0245 30.2723 23.8747 30.2692 23.7394 30.3202C23.6041 30.3712 23.4936 30.4723 23.4309 30.6026C23.3681 30.7328 23.358 30.8823 23.4025 31.0198C23.4471 31.1574 23.5429 31.2725 23.67 31.3413C23.9277 31.4703 24.2118 31.5375 24.4999 31.5375C24.788 31.5375 25.0722 31.4703 25.3298 31.3413C25.3998 31.3116 25.4631 31.2679 25.5158 31.213C25.5685 31.1581 25.6095 31.0931 25.6363 31.0219C25.6632 30.9507 25.6753 30.8747 25.6719 30.7987C25.6685 30.7227 25.6498 30.6481 25.6167 30.5796C25.5837 30.511 25.5372 30.4498 25.4798 30.3998C25.4225 30.3498 25.3556 30.3119 25.2832 30.2884C25.2108 30.265 25.1344 30.2565 25.0586 30.2634C24.9828 30.2704 24.9092 30.2926 24.8423 30.3288H24.8415ZM31.1029 22.1651L31.2458 22.0781C31.2908 22.0496 31.3118 22.0312 31.3463 22.0065C31.4566 21.9329 31.5738 21.8701 31.6962 21.819C31.8057 21.7649 31.9283 21.7431 32.0498 21.756L32.1248 21.7642C32.1723 21.7692 32.2203 21.7613 32.2637 21.7413C32.307 21.7212 32.3441 21.6898 32.3711 21.6503C32.398 21.6108 32.4137 21.5648 32.4166 21.5171C32.4194 21.4694 32.4093 21.4219 32.3873 21.3795C32.3101 21.2524 32.203 21.1463 32.0752 21.0703C31.9474 20.9943 31.803 20.9509 31.6545 20.9437C31.3892 20.9313 31.1246 20.9803 30.8813 21.087L30.7227 21.1548L30.606 21.2085C30.5258 21.2411 30.4474 21.2763 30.3638 21.3045C30.2025 21.3705 30.0345 21.4248 29.868 21.4773C29.5435 21.5804 29.2091 21.6489 28.8702 21.6817C28.5673 21.7171 28.2605 21.6905 27.9683 21.6033L27.9135 21.5853C27.8248 21.5565 27.7289 21.5595 27.6421 21.5936C27.5553 21.6277 27.4831 21.6909 27.4377 21.7724C27.3924 21.8539 27.3767 21.9486 27.3935 22.0403C27.4102 22.1321 27.4583 22.2151 27.5295 22.2753C27.9149 22.5818 28.3921 22.7495 28.8844 22.7516C29.3315 22.7625 29.7773 22.6985 30.2033 22.5622C30.4113 22.4965 30.6146 22.4164 30.8115 22.3226C30.912 22.275 31.0065 22.2187 31.1029 22.1651ZM21.5914 21.8426C21.5584 21.7412 21.4864 21.657 21.3913 21.6086C21.2963 21.5602 21.1859 21.5516 21.0844 21.5846L21.03 21.6022C20.7385 21.6891 20.4323 21.7158 20.13 21.6806C19.7912 21.6477 19.4567 21.5792 19.1322 21.4762C18.9657 21.4237 18.7977 21.3693 18.6364 21.3033C18.5528 21.2752 18.4744 21.24 18.3942 21.2073L18.2745 21.1537L18.1159 21.0858C17.8726 20.9792 17.608 20.9302 17.3427 20.9426C17.1942 20.9497 17.0498 20.9932 16.922 21.0692C16.7943 21.1452 16.6871 21.2513 16.6099 21.3783C16.5857 21.4244 16.5759 21.4766 16.5818 21.5283C16.5896 21.598 16.6248 21.6618 16.6795 21.7056C16.7343 21.7494 16.8042 21.7697 16.8739 21.762L16.9489 21.7537C17.0704 21.7408 17.193 21.7627 17.3025 21.8167C17.4248 21.8678 17.5419 21.9306 17.652 22.0042C17.6869 22.029 17.7079 22.0473 17.7529 22.0758L17.8958 22.1628C17.9922 22.2165 18.0878 22.2723 18.1864 22.3192C18.3834 22.413 18.5866 22.4931 18.7947 22.5588C19.2207 22.6951 19.6664 22.7591 20.1135 22.7482C20.6058 22.7461 21.0831 22.5784 21.4684 22.272C21.5289 22.2205 21.5729 22.1522 21.5947 22.0758C21.6166 21.9995 21.6155 21.9183 21.5914 21.8426Z" fill="#867070"/>
<path d="M39.591 43.1123C38.4105 42.0191 36.2535 41.3123 34.17 40.6256C33.0604 40.2945 31.9748 39.8874 30.921 39.4073C28.7888 38.3254 28.671 36.3428 28.587 34.8953C28.587 34.86 28.5829 34.8304 28.5807 34.7963C29.6346 34.1622 30.6066 33.401 31.4749 32.5298C32.6927 31.2851 33.6028 29.773 34.1325 28.1141C35.9726 28.0553 37.8296 26.0914 38.1214 24.3236C38.1542 24.1309 38.1744 23.9362 38.1821 23.7409C38.516 23.6153 38.799 23.3831 38.9873 23.0801C39.6581 21.9926 39.2873 20.685 38.8958 19.3005L38.8718 19.2169C39.6863 16.2679 39.3829 10.0256 36.1343 5.52939C33.8224 2.33176 28.3478 -0.982489 24.4999 0.653261C20.6517 -0.982864 15.1774 2.33139 12.8655 5.52826C9.6154 10.026 9.31203 16.2683 10.128 19.2158L10.104 19.2994C9.71215 20.6839 9.34165 21.9915 10.0122 23.079C10.2006 23.3818 10.4838 23.6138 10.8177 23.739C10.8252 23.9335 10.8453 24.1273 10.878 24.3191C11.1702 26.0899 13.0272 28.0541 14.8673 28.113C15.3969 29.7722 16.3069 31.2847 17.5249 32.5298C18.3937 33.401 19.3662 34.1622 20.4207 34.7963C20.4184 34.8304 20.4162 34.86 20.4143 34.8953C20.3288 36.3428 20.2122 38.3254 18.0803 39.4073C17.0265 39.8874 15.9409 40.2945 14.8313 40.6256C12.7463 41.3104 10.5908 42.0191 9.41028 43.1123C8.23868 44.218 7.33177 45.574 6.75715 47.079C6.70111 47.217 6.70209 47.3716 6.7599 47.5089C6.81771 47.6462 6.92762 47.755 7.06551 47.8113C7.2034 47.8677 7.35801 47.8671 7.49543 47.8096C7.63285 47.7521 7.74186 47.6424 7.79853 47.5046C8.31246 46.1521 9.12473 44.9329 10.1749 43.9376C11.175 43.011 13.3043 42.3116 15.1823 41.6944C16.3466 41.3468 17.485 40.9179 18.5891 40.4108C21.075 39.1493 21.405 36.8985 21.5115 35.358C22.2598 35.6949 23.041 35.9532 23.8425 36.129C24.2761 36.2248 24.7253 36.2248 25.1588 36.129C25.9608 35.9529 26.7424 35.6944 27.4913 35.3576C27.5978 36.8981 27.9278 39.1489 30.4136 40.4104C31.5178 40.9175 32.6562 41.3464 33.8205 41.694C35.6985 42.3113 37.8278 43.0106 38.8279 43.9373C39.8781 44.9325 40.6903 46.1518 41.2043 47.5043C41.2609 47.642 41.3699 47.7517 41.5074 47.8092C41.6448 47.8667 41.7994 47.8673 41.9373 47.811C42.0752 47.7546 42.1851 47.6458 42.2429 47.5086C42.3007 47.3713 42.3017 47.2167 42.2456 47.0786C41.6705 45.5736 40.7631 44.2178 39.591 43.1123ZM35.814 22.9125C35.7874 22.905 35.7602 22.8996 35.7327 22.8964C35.5382 22.8783 35.3421 22.8937 35.1529 22.9418C35.1664 22.7543 35.1773 22.5668 35.187 22.3755C35.4053 22.566 35.6143 22.745 35.814 22.9125ZM34.5015 26.9363C34.72 26.1076 34.8865 25.2661 34.9999 24.4166C35.2313 23.9813 35.5249 24.0041 35.6235 24.0143C35.772 24.0286 35.92 23.9834 36.0351 23.8886C36.1502 23.7938 36.223 23.6572 36.2374 23.5088C36.2466 23.4079 36.2282 23.3064 36.1841 23.2151C36.3075 23.3138 36.4313 23.4135 36.5457 23.5009C36.6989 23.6179 36.871 23.7078 37.0545 23.7668C37.0473 23.8909 37.0334 24.0146 37.0129 24.1373C36.8258 25.2769 35.6494 26.6404 34.5004 26.9344L34.5015 26.9363ZM35.2227 6.18751C37.7869 9.73614 38.4341 14.7311 38.0119 17.7983C37.7857 17.4857 37.5326 17.1934 37.2555 16.9249C37.145 16.8306 37.0023 16.7828 36.8573 16.7913C36.7123 16.7999 36.5763 16.8642 36.4776 16.9708C36.379 17.0774 36.3254 17.218 36.3281 17.3632C36.3307 17.5084 36.3895 17.647 36.492 17.7499C37.0002 18.2459 37.4301 18.8161 37.767 19.4411C38.0734 20.142 38.442 21.8224 38.0295 22.4891C37.9836 22.5608 37.9208 22.6201 37.8465 22.6617C37.7723 22.7034 37.689 22.7261 37.6039 22.728C37.4694 22.7277 37.3383 22.6855 37.2289 22.6073C36.8164 22.2911 36.099 21.7091 35.04 20.7323C34.0009 19.7775 32.8245 18.6184 31.5431 17.2871C29.6603 15.3371 27.5344 12.9994 25.2244 10.3436C26.2928 8.77726 25.5218 7.14376 24.8892 5.81064C24.5819 5.26841 24.3704 4.67724 24.264 4.06314C24.2265 3.31614 24.6611 2.22826 24.9116 1.70064C28.1554 0.297011 33.2265 3.42714 35.2227 6.18751ZM11.232 19.4415C11.5687 18.8164 11.9987 18.2463 12.507 17.7506C12.6096 17.6478 12.6683 17.5092 12.671 17.364C12.6737 17.2188 12.6201 17.0781 12.5214 16.9715C12.4228 16.8649 12.2867 16.8006 12.1417 16.7921C11.9967 16.7835 11.854 16.8314 11.7435 16.9256C11.4665 17.1942 11.2134 17.4864 10.9872 17.799C10.5649 14.7319 11.2122 9.73651 13.7764 6.18826C15.4335 3.89739 19.2083 1.35001 22.2968 1.35001C22.7867 1.34548 23.2743 1.41812 23.7417 1.56526C23.368 2.36613 23.1637 3.23553 23.1416 4.11901C23.2459 4.88313 23.4944 5.62047 23.874 6.29176C24.6109 7.84389 25.023 8.93964 24.0803 9.98814L24.0732 9.99564C21.6469 12.798 19.419 15.2509 17.4533 17.2875C16.1727 18.618 14.9963 19.7771 13.956 20.733C12.8982 21.7099 12.1823 22.2919 11.7664 22.608C11.6622 22.6869 11.5348 22.729 11.4042 22.7276C11.3174 22.7269 11.2322 22.7046 11.1562 22.6629C11.0801 22.6211 11.0156 22.5612 10.9684 22.4884C10.5574 21.825 10.9249 20.142 11.232 19.4415ZM13.8124 22.3736C13.8222 22.5638 13.833 22.7528 13.8465 22.9399C13.6573 22.8918 13.4612 22.8764 13.2668 22.8945C13.2393 22.8977 13.2121 22.9031 13.1854 22.9106C13.3857 22.7441 13.5947 22.5651 13.8124 22.3736ZM11.9854 24.1339C11.9651 24.0123 11.9514 23.8898 11.9442 23.7668C12.1269 23.7088 12.2983 23.62 12.4512 23.5043C12.5663 23.4161 12.6908 23.3168 12.8145 23.217C12.7712 23.3068 12.7526 23.4065 12.7608 23.5058C12.7689 23.6051 12.8034 23.7005 12.8608 23.782C12.9182 23.8635 12.9963 23.9281 13.087 23.9693C13.1778 24.0105 13.2779 24.0267 13.377 24.0161C13.4749 24.0056 13.7689 23.9831 14.0003 24.4185C14.1146 25.267 14.2814 26.1076 14.4998 26.9355C13.3512 26.6381 12.1737 25.275 11.9854 24.1339ZM24.9124 35.031C24.6396 35.0914 24.3568 35.0914 24.084 35.031C21.3874 34.4355 19.713 33.0893 18.3056 31.7231C17.1403 30.5085 16.2853 29.0307 15.813 27.4151C15.8073 27.3929 15.8 27.3711 15.7913 27.3499C15.4663 26.3078 15.2339 25.239 15.0968 24.156C14.9797 23.2369 14.9154 22.3119 14.904 21.3855C15.8933 20.4686 16.9943 19.3826 18.1868 18.1459C19.227 18.1447 20.2663 18.2057 21.2993 18.3285L21.3184 18.3323C21.4251 18.3524 21.5354 18.3329 21.6287 18.2775C21.7221 18.222 21.792 18.1344 21.8253 18.0311C21.8587 17.9278 21.8532 17.8159 21.8099 17.7164C21.7667 17.6168 21.6886 17.5365 21.5903 17.4904C21.0948 17.2692 20.5662 17.1313 20.0258 17.0824C19.7641 17.0558 19.5012 17.0439 19.2383 17.0468C20.8485 15.3424 22.6133 13.3894 24.5007 11.2215C26.3892 13.3894 28.1535 15.3424 29.763 17.0468C29.5001 17.0441 29.2372 17.056 28.9755 17.0824C28.4351 17.1313 27.9065 17.2692 27.411 17.4904C27.3126 17.5364 27.2344 17.6168 27.1911 17.7164C27.1478 17.8161 27.1423 17.9281 27.1758 18.0314C27.2092 18.1348 27.2792 18.2224 27.3727 18.2778C27.4661 18.3332 27.5766 18.3525 27.6833 18.3323L27.702 18.3285C28.735 18.2058 29.7743 18.145 30.8145 18.1463C32.0074 19.3838 33.1088 20.4713 34.0969 21.3855C34.0856 22.3117 34.0212 23.2364 33.9042 24.1553C33.7686 25.2222 33.5408 26.2754 33.2232 27.303C33.2062 27.3415 33.1937 27.3817 33.1856 27.423C32.7133 29.0356 31.8594 30.5106 30.696 31.7231C29.2857 33.0889 27.6124 34.4351 24.9124 35.031Z" fill="#867070"/>
<path d="M13.3204 13.4175C13.4033 13.4176 13.4853 13.3994 13.5604 13.3641C13.6354 13.3288 13.7018 13.2774 13.7546 13.2135C13.8011 13.1572 18.447 7.58847 22.0976 7.58847C22.2468 7.58847 22.3899 7.5292 22.4954 7.42371C22.6009 7.31822 22.6601 7.17515 22.6601 7.02597C22.6601 6.87678 22.6009 6.73371 22.4954 6.62822C22.3899 6.52273 22.2468 6.46347 22.0976 6.46347C17.9231 6.46347 13.0909 12.2523 12.8873 12.4983C12.8198 12.5806 12.7771 12.6803 12.764 12.7859C12.751 12.8914 12.7681 12.9985 12.8134 13.0948C12.8588 13.191 12.9305 13.2724 13.0202 13.3295C13.1099 13.3866 13.214 13.4171 13.3204 13.4175ZM26.8991 7.58659C30.5449 7.58659 35.1956 13.1572 35.2421 13.2116C35.2892 13.2685 35.3471 13.3157 35.4123 13.3503C35.4776 13.3849 35.5491 13.4063 35.6227 13.4133C35.6962 13.4202 35.7704 13.4127 35.8411 13.391C35.9117 13.3693 35.9774 13.3339 36.0343 13.2868C36.0913 13.2397 36.1384 13.1819 36.173 13.1166C36.2076 13.0513 36.229 12.9798 36.236 12.9063C36.243 12.8327 36.2354 12.7585 36.2137 12.6878C36.192 12.6172 36.1566 12.5515 36.1095 12.4946C35.9059 12.2486 31.0736 6.45972 26.8991 6.45972C26.75 6.45972 26.6069 6.51898 26.5014 6.62447C26.3959 6.72996 26.3366 6.87303 26.3366 7.02222C26.3366 7.1714 26.3959 7.31447 26.5014 7.41996C26.6069 7.52545 26.75 7.58472 26.8991 7.58472V7.58659Z" fill="#867070"/>
</svg>
