<svg width="48" height="48" viewBox="0 0 48 48" fill="none" xmlns="http://www.w3.org/2000/svg">
<g clip-path="url(#clip0_257_401)">
<path d="M14.7952 12.7725H16.2024V14.1797H14.7952V12.7725ZM17.6096 12.7725H19.0168V14.1797H17.6096V12.7725ZM39.6728 11.5043L41.0298 11.132C40.8991 10.6558 40.745 10.1863 40.5681 9.72535L39.2545 10.23C39.4148 10.6476 39.5544 11.0729 39.6728 11.5043ZM23.1446 2.93091H24.5518V4.3381H23.1446V2.93091ZM21.563 25.546L20.2534 25.0311C19.3671 27.3572 16.008 27.4023 15.0462 25.1128L13.7535 25.669C15.197 29.1039 20.2346 29.0333 21.563 25.546ZM30.2207 26.8161C29.6702 26.8164 29.1317 26.6552 28.6719 26.3524C28.2121 26.0497 27.8512 25.6187 27.634 25.1128L26.3412 25.669C27.7593 29.0487 32.6826 29.0477 34.1 25.6693L32.8075 25.113C32.5902 25.6188 32.2293 26.0497 31.7695 26.3525C31.3097 26.6552 30.7712 26.8164 30.2207 26.8161ZM34.7389 22.5107L35.7032 21.4859C34.5457 20.3966 33.0327 19.7967 31.4433 19.7967H26.1273V21.2039H31.4433C32.6729 21.2039 33.8434 21.668 34.7389 22.5107ZM21.8637 21.2039V19.7967H16.4855C14.8961 19.7967 13.3832 20.3966 12.2256 21.4859L13.1899 22.5107C14.0855 21.668 15.2559 21.2039 16.4854 21.2039H21.8637ZM20.1479 34.6651L19.3399 35.8172C21.8534 37.8629 26.0778 37.8629 28.5913 35.8172L27.7833 34.6651C25.792 36.2153 21.9898 36.2207 20.1479 34.6651Z" fill="#867070"/>
<path d="M37.0607 35.165C37.754 33.4991 38.224 31.7128 38.4846 29.7113C40.3871 28.5295 41.5585 26.4215 41.5585 24.1767V15.1851C41.5328 14.118 41.475 13.1787 41.3557 12.6087L39.9679 12.8419C40.2755 14.1654 40.1137 19.6724 40.1515 21.2157H38.6849C38.6641 11.6754 32.3766 4.93903 22.464 5.79562C20.7767 4.84725 20.759 2.44359 22.438 1.48322H26.5224C31.7062 1.48322 36.3756 4.36162 38.7084 8.99522L39.9654 8.36241C37.4944 3.35531 32.1189 0.0244688 26.5223 0.0762188C21.0605 -0.00375 16.2755 -0.258094 11.824 3.5265L9.89531 0L7.71844 3.98025L3.73828 6.15713L7.85681 8.49319C6.91331 10.0693 6.50381 12.4329 6.36778 14.9458V24.1769C6.36788 26.4217 7.54481 28.5297 9.44747 29.7114C9.93891 34.7467 12.7976 39.9743 16.9169 43.0958V48H18.3241V44.0945C20.0672 45.2197 21.9564 46.029 23.9581 46.5114C25.9499 46.0319 27.8611 45.2042 29.6117 44.0752V48H31.0189V43.0755C31.8844 42.4008 32.6916 41.6545 33.4319 40.8444L35.2228 44.1188L37.3997 40.1386L41.3798 37.9617L37.3997 35.7848L37.0607 35.165ZM40.1568 22.623C40.2142 24.6419 40.2278 26.2577 38.7247 27.7789V22.623H40.1568ZM6.67088 6.15703L8.75531 5.01703L9.89531 2.93259L11.0353 5.01703L13.1198 6.15703L11.0353 7.29703L9.89531 9.38147L8.75531 7.29703L6.67088 6.15703ZM7.77506 15.1178C7.77506 13.3894 8.08988 11.7231 8.70984 10.1466L9.89541 12.3143L12.0723 8.334L16.0524 6.15713L12.9241 4.44619C15.0657 2.74071 17.6722 1.7212 20.4026 1.521C19.4718 2.84878 19.5753 4.81575 20.645 6.03469C13.1435 7.27247 9.21909 13.9338 9.17409 21.2158H7.77506V15.1178ZM7.77506 24.1767V22.623H9.16884V27.7839C8.22731 26.8371 7.77506 25.539 7.77506 24.1767ZM23.9581 45.0599C12.4776 41.9513 9.92241 31.835 10.5779 21.4719L12.5707 19.4791C15.7713 16.3271 18.4233 18.9424 22.0391 15.7523L21.1121 14.6934C17.3556 17.8213 15.2549 14.3439 10.6965 19.3631C11.0303 16.4013 12.0196 13.7455 13.5338 11.7458C18.0532 5.29838 31.1934 5.68988 35.0259 12.6863C35.8807 14.0679 36.4183 15.5 36.7567 16.9757C33.9343 13.0467 29.5554 10.4396 24.6617 9.88894V8.50387H23.2545C23.3147 10.4483 23.2345 12.1488 21.9898 13.7504L23.1125 14.5989C23.8573 13.6134 24.3429 12.4882 24.5487 11.2921C30.1269 11.9333 34.9758 15.4956 37.2495 20.6585C37.2113 24.5857 37.5958 29.8685 36.172 33.5402L35.2228 31.8046L33.0459 35.7848L29.0658 37.9617L32.4622 39.8193C30.1525 42.3757 27.1669 44.2201 23.9581 45.0599ZM36.3628 39.1018L35.2228 41.1862L34.0828 39.1018L31.9984 37.9618L34.0828 36.8218L35.2228 34.7374L36.3628 36.8218L38.4473 37.9618L36.3628 39.1018Z" fill="#867070"/>
<path d="M43.6669 31.0194H42.2597V32.4267H40.8524V33.8338H42.2597V35.2411H43.6669V33.8338H45.0742V32.4267H43.6669V31.0194ZM2.85734 9.97766H1.45016V11.3848H0.0429688V12.7921H1.45016V14.1993H2.85734V12.7921H4.26462V11.3848H2.85734V9.97766ZM46.5503 28.205H47.9575V29.6122H46.5503V28.205ZM46.5503 36.6453H47.9575V38.0525H46.5503V36.6453Z" fill="#867070"/>
</g>
<defs>
<clipPath id="clip0_257_401">
<rect width="48" height="48" fill="white"/>
</clipPath>
</defs>
</svg>
